<?xml version="1.0" encoding="UTF-8" standalone="no"?>
<svg
   width="256"
   height="256"
   version="1.1"
   id="svg3"
   sodipodi:docname="logo.svg"
   xmlns:inkscape="http://www.inkscape.org/namespaces/inkscape"
   xmlns:sodipodi="http://sodipodi.sourceforge.net/DTD/sodipodi-0.dtd"
   xmlns:xlink="http://www.w3.org/1999/xlink"
   xmlns="http://www.w3.org/2000/svg"
   xmlns:svg="http://www.w3.org/2000/svg">
  <sodipodi:namedview
     id="namedview3"
     pagecolor="#ffffff"
     bordercolor="#000000"
     borderopacity="0.25"
     inkscape:showpageshadow="2"
     inkscape:pageopacity="0.0"
     inkscape:pagecheckerboard="0"
     inkscape:deskcolor="#d1d1d1"
     inkscape:export-bgcolor="#ffffff00">
    <inkscape:page
       x="0"
       y="0"
       width="256"
       height="256"
       id="page2"
       margin="0"
       bleed="0" />
  </sodipodi:namedview>
  <defs
     id="defs2">
    <linearGradient
       id="Gradient"
       x1="0"
       x2="0"
       y1="0"
       y2="256"
       gradientUnits="userSpaceOnUse">
      <stop
         offset="0%"
         style="stop-color:#1A5FB4;stop-opacity:1"
         id="stop1" />
      <stop
         offset="100%"
         style="stop-color:#DC8ADD;stop-opacity:1"
         id="stop2" />
    </linearGradient>
    <filter
       id="alpha-to-white"
       x="-0.055555556"
       y="-0.055555556"
       width="1.1111111"
       height="1.1111111">
      <feColorMatrix
         in="SourceGraphic"
         type="matrix"
         values="0 0 0 0 1 0 0 0 0 1 0 0 0 0 1 0 0 0 1 0"
         id="feColorMatrix2" />
    </filter>
    <g
       id="child-svg">
      <svg
         width="24"
         height="24"
         viewBox="0 0 24 24"
         fill="none"
         stroke="currentColor"
         stroke-width="2"
         stroke-linecap="round"
         stroke-linejoin="round"
         class="feather feather-table"
         version="1.1"
         id="svg2">
        <path
           d="M 9,3 H 5 A 2,2 0 0 0 3,5 V 9 M 9,3 h 10 a 2,2 0 0 1 2,2 V 9 M 9,3 v 18 m 0,0 h 10 a 2,2 0 0 0 2,-2 V 9 M 9,21 H 5 A 2,2 0 0 1 3,19 V 9 m 0,0 h 18"
           id="path2" />
      </svg>
    </g>
  </defs>
  <rect
     width="256"
     height="256"
     fill="url(#Gradient)"
     ry="56.120773"
     x="0"
     y="0"
     id="rect2"
     style="fill:url(#Gradient)" />
  <use
     xlink:href="#child-svg"
     filter="url(#alpha-to-white)"
     transform="matrix(5,0,0,5,64,64)"
     id="use2" />
</svg>
